<?xml version="1.0" encoding="UTF-8" standalone="no"?>
<svg
   xmlns:dc="http://purl.org/dc/elements/1.1/"
   xmlns:cc="http://creativecommons.org/ns#"
   xmlns:rdf="http://www.w3.org/1999/02/22-rdf-syntax-ns#"
   xmlns:svg="http://www.w3.org/2000/svg"
   xmlns="http://www.w3.org/2000/svg"
   xmlns:sodipodi="http://sodipodi.sourceforge.net/DTD/sodipodi-0.dtd"
   xmlns:inkscape="http://www.inkscape.org/namespaces/inkscape"
   viewBox="0 0 621.90997 227.97999"
   version="1.1"
   id="svg96"
   sodipodi:docname="FSL_17_CMYK_NoBkg.svg"
   width="621.90997"
   height="227.98"
   inkscape:version="0.92.4 (5da689c313, 2019-01-14)">
  <metadata
     id="metadata100">
    <rdf:RDF>
      <cc:Work
         rdf:about="">
        <dc:format>image/svg+xml</dc:format>
        <dc:type
           rdf:resource="http://purl.org/dc/dcmitype/StillImage" />
        <dc:title>Asset 3</dc:title>
      </cc:Work>
    </rdf:RDF>
  </metadata>
  <sodipodi:namedview
     pagecolor="#ffffff"
     bordercolor="#666666"
     borderopacity="1"
     objecttolerance="10"
     gridtolerance="10"
     guidetolerance="10"
     inkscape:pageopacity="0"
     inkscape:pageshadow="2"
     inkscape:window-width="1920"
     inkscape:window-height="1017"
     id="namedview98"
     showgrid="false"
     fit-margin-top="5"
     fit-margin-left="5"
     fit-margin-right="5"
     fit-margin-bottom="5"
     inkscape:zoom="0.30280331"
     inkscape:cx="294.915"
     inkscape:cy="108.47997"
     inkscape:window-x="1042"
     inkscape:window-y="280"
     inkscape:window-maximized="1"
     inkscape:current-layer="svg96" />
  <defs
     id="defs34">
    <style
       id="style2">.cls-1{isolation:isolate;}.cls-2,.cls-3{fill:none;}.cls-3{stroke:#392d87;stroke-miterlimit:10;stroke-width:6px;}.cls-4,.cls-5{mix-blend-mode:multiply;}.cls-4{fill:url(#linear-gradient);}.cls-5{fill:url(#linear-gradient-2);}.cls-6{fill:#8376b5;}.cls-7{fill:#9e94c7;}.cls-8{fill:#392d87;}.cls-9{fill:#d9e5a6;}.cls-10{fill:#b9d154;}.cls-11{fill:#a2c617;}</style>
    <linearGradient
       id="linear-gradient"
       x1="227.67"
       y1="388.01001"
       x2="278.23001"
       y2="300.42999"
       gradientTransform="matrix(0.86,0.5,-0.5,0.86,206.94,-76.61)"
       gradientUnits="userSpaceOnUse">
      <stop
         offset="0.42"
         stop-color="#fff"
         stop-opacity="0"
         id="stop4" />
      <stop
         offset="0.81"
         stop-color="#b2b2b2"
         id="stop6" />
      <stop
         offset="0.83"
         stop-color="#afb0ac"
         id="stop8" />
      <stop
         offset="0.87"
         stop-color="#a6aa9a"
         id="stop10" />
      <stop
         offset="0.9"
         stop-color="#98a07d"
         id="stop12" />
      <stop
         offset="0.94"
         stop-color="#849255"
         id="stop14" />
      <stop
         offset="0.99"
         stop-color="#6c8122"
         id="stop16" />
      <stop
         offset="1"
         stop-color="#627a0f"
         id="stop18" />
    </linearGradient>
    <linearGradient
       id="linear-gradient-2"
       x1="171.46001"
       y1="357.23001"
       x2="222.02"
       y2="269.64999"
       gradientTransform="matrix(0.87,0.5,-0.5,0.87,184.46,-58.28)"
       gradientUnits="userSpaceOnUse">
      <stop
         offset="0.43"
         stop-color="#fff"
         stop-opacity="0"
         id="stop21" />
      <stop
         offset="0.47"
         stop-color="#f6f6f6"
         stop-opacity="0.11"
         id="stop23" />
      <stop
         offset="0.67"
         stop-color="#d2d2d2"
         stop-opacity="0.59"
         id="stop25" />
      <stop
         offset="0.8"
         stop-color="#bbb"
         stop-opacity="0.88"
         id="stop27" />
      <stop
         offset="0.87"
         stop-color="#b2b2b2"
         id="stop29" />
      <stop
         offset="1"
         stop-color="#251854"
         id="stop31" />
    </linearGradient>
  </defs>
  <title
     id="title36">Asset 3</title>
  <g
     class="cls-1"
     id="g94"
     style="isolation:isolate"
     transform="translate(-178.99001,-138.45)">
    <g
       id="Layer_2"
       data-name="Layer 2">
      <g
         id="Layer_1-2"
         data-name="Layer 1">
        <rect
           class="cls-2"
           width="947.81"
           height="515.90002"
           id="rect38"
           x="0"
           y="0"
           style="fill:none" />
        <rect
           class="cls-3"
           x="186.99001"
           y="146.45"
           width="211.98"
           height="211.98"
           rx="12.2"
           id="rect40"
           style="fill:none;stroke:#392d87;stroke-width:6px;stroke-miterlimit:10" />
        <rect
           class="cls-4"
           x="199.57001"
           y="335.04001"
           width="106.03"
           height="17.700001"
           transform="rotate(-30.16,252.57381,343.88203)"
           id="rect42"
           style="mix-blend-mode:multiply;fill:url(#linear-gradient)" />
        <rect
           class="cls-5"
           x="143.92"
           y="304.48001"
           width="106.42"
           height="17.969999"
           transform="rotate(-30.16,197.10132,313.45001)"
           id="rect44"
           style="mix-blend-mode:multiply;fill:url(#linear-gradient-2)" />
        <g
           class="cls-1"
           id="g60"
           style="isolation:isolate">
          <polygon
             class="cls-6"
             points="265.08,284.37 247.35,294.67 247.48,251.27 265.2,240.97 "
             id="polygon46"
             style="fill:#8376b5" />
          <polygon
             class="cls-7"
             points="282.28,233.53 264.55,243.83 247.53,234 265.25,223.7 "
             id="polygon48"
             style="fill:#9e94c7" />
          <polygon
             class="cls-6"
             points="282.23,250.8 264.5,261.1 264.55,243.83 282.28,233.53 "
             id="polygon50"
             style="fill:#8376b5" />
          <polygon
             class="cls-6"
             points="265.25,223.7 247.53,234 247.59,209.82 265.32,199.52 "
             id="polygon52"
             style="fill:#8376b5" />
          <polygon
             class="cls-8"
             points="229.41,284.31 229.7,182.19 290.62,217.37 290.57,234.64 247.59,209.82 247.53,234 264.55,243.83 264.5,261.1 247.48,251.27 247.35,294.67 "
             id="polygon54"
             style="fill:#392d87" />
          <polygon
             class="cls-7"
             points="308.35,207.07 290.62,217.37 229.7,182.19 247.43,171.89 "
             id="polygon56"
             style="fill:#9e94c7" />
          <polygon
             class="cls-6"
             points="308.3,224.34 290.57,234.64 290.62,217.37 308.35,207.07 "
             id="polygon58"
             style="fill:#8376b5" />
        </g>
        <g
           class="cls-1"
           id="g70"
           style="isolation:isolate">
          <polygon
             class="cls-9"
             points="342.57,264.46 360.19,274.7 320.63,297.54 303.02,287.3 "
             id="polygon62"
             style="fill:#d9e5a6" />
          <polygon
             class="cls-10"
             points="360.19,274.7 369.46,286.46 302.87,324.91 302.58,224.35 320.4,214.06 320.63,297.54 "
             id="polygon64"
             style="fill:#b9d154" />
          <polygon
             class="cls-11"
             points="284.96,214.11 302.58,224.35 302.87,324.91 285.25,314.67 "
             id="polygon66"
             style="fill:#a2c617" />
          <polygon
             class="cls-9"
             points="302.78,203.82 320.4,214.06 302.58,224.35 284.96,214.11 "
             id="polygon68"
             style="fill:#d9e5a6" />
        </g>
        <path
           class="cls-8"
           d="m 499.93,160.38 v 11.84 h -44.5 v 27.62 h 39.19 v 11.84 h -39.19 v 39.46 h -12.66 v -90.76 z"
           id="path72"
           inkscape:connector-curvature="0"
           style="fill:#392d87" />
        <path
           class="cls-8"
           d="m 564.7,210.59 v 19.6 c 0,5.17 -2,22 -28.17,22 -26.67,0 -28.71,-17.14 -28.71,-22.45 0,-13.47 12,-21.5 32,-21.5 a 89.27,89.27 0 0 1 12.38,0.82 C 551.66,197.9 546.76,193 533.42,193 a 57.93,57.93 0 0 0 -18.78,3.4 v -10.57 a 57.18,57.18 0 0 1 20.55,-3.68 c 18.9,0 29.51,10.07 29.51,28.44 z M 552.18,219 a 73.8,73.8 0 0 0 -11.84,-0.82 c -5.85,0 -20.14,1.77 -20.14,11.43 0,7.76 5.58,11.57 16.33,11.57 10.34,0 15.65,-3.67 15.65,-11.16 z"
           id="path74"
           inkscape:connector-curvature="0"
           style="fill:#392d87" />
        <path
           class="cls-8"
           d="M 594.77,251.14 H 582.26 V 189 a 86.08,86.08 0 0 1 33.06,-6.81 v 11.43 a 90.18,90.18 0 0 0 -20.55,2.86 z"
           id="path76"
           inkscape:connector-curvature="0"
           style="fill:#392d87" />
        <path
           class="cls-8"
           d="m 668.26,186.64 v 10.75 a 40.53,40.53 0 0 0 -16.74,-4.08 c -11,0 -13.47,4.08 -13.47,8.71 0,10.89 34.7,4.63 34.7,30.21 0,9.39 -6.67,20 -25.31,20 a 40.73,40.73 0 0 1 -19.6,-4.76 v -11.3 a 38,38 0 0 0 19,5 c 9.25,0 13.34,-4 13.34,-8.44 0,-15.24 -34.57,-6.94 -34.57,-30.34 0,-9.8 6.4,-20.28 24.36,-20.28 a 41.1,41.1 0 0 1 18.29,4.53 z"
           id="path78"
           inkscape:connector-curvature="0"
           style="fill:#392d87" />
        <path
           class="cls-8"
           d="m 741.19,236.58 v 11.3 a 61.3,61.3 0 0 1 -24.08,4.49 c -14.29,0 -31.3,-6 -31.3,-34.29 0,-8.85 0,-35.93 30.07,-35.93 18.24,0 29.94,12.93 29.94,32.8 0,3.26 -0.13,6.39 -0.41,9.39 H 698.6 c 1.91,14.15 10.21,17.28 19.19,17.28 10.07,0 17.69,-2.04 23.4,-5.04 z M 698.47,213 h 34.83 c -0.68,-7.89 -3.94,-19.73 -17.42,-19.73 -11.43,0.04 -16.33,5.21 -17.41,19.73 z"
           id="path80"
           inkscape:connector-curvature="0"
           style="fill:#392d87" />
        <path
           class="cls-8"
           d="m 777.8,193.72 v 39.46 c 0,5.85 3.81,8 10.21,8 a 14.83,14.83 0 0 0 7.89,-2 v 11.16 a 25.38,25.38 0 0 1 -9.66,1.9 c -4.36,0 -20.82,-1.49 -20.82,-19.87 v -38.65 h -11.84 v -10.48 h 11.84 V 163 h 12.38 v 20.28 h 18.1 v 10.48 z"
           id="path82"
           inkscape:connector-curvature="0"
           style="fill:#392d87" />
        <path
           class="cls-11"
           d="m 500.47,337.38 v 11.84 h -57.7 v -90.76 h 12.52 v 78.92 z"
           id="path84"
           inkscape:connector-curvature="0"
           style="fill:#a2c617" />
        <path
           class="cls-11"
           d="m 566.6,308.67 v 19.59 c 0,5.17 -2,22.05 -28.16,22.05 -26.67,0 -28.72,-17.15 -28.72,-22.46 0,-13.47 12,-21.5 32,-21.5 a 90.88,90.88 0 0 1 12.39,0.82 c -0.55,-11.16 -5.45,-16.06 -18.78,-16.06 a 57.79,57.79 0 0 0 -18.78,3.41 V 283.9 a 57.38,57.38 0 0 1 20.55,-3.67 c 18.9,0 29.5,10.07 29.5,28.44 z m -12.51,8.43 a 75.17,75.17 0 0 0 -11.84,-0.81 c -5.85,0 -20.14,1.77 -20.14,11.43 0,7.76 5.58,11.57 16.33,11.57 10.34,0 15.65,-3.68 15.65,-11.16 z"
           id="path86"
           inkscape:connector-curvature="0"
           style="fill:#a2c617" />
        <path
           class="cls-11"
           d="m 640.5,314.38 c 0,31.3 -18.78,35.93 -30.08,35.93 -26,0 -28,-16.88 -28,-22.05 v -72.8 h 12.38 v 26.81 a 52.38,52.38 0 0 1 14.57,-2 c 14.12,-0.04 31.13,5.95 31.13,34.11 z m -12.52,0 c 0,-20.27 -9,-23.13 -18.64,-23.13 a 38,38 0 0 0 -14.57,2.86 v 35 c 0,6.8 5.31,10.21 15.65,10.21 8.17,-0.03 17.58,-2.89 17.58,-24.94 z"
           id="path88"
           inkscape:connector-curvature="0"
           style="fill:#a2c617" />
        <path
           class="cls-11"
           d="m 696.83,284.72 v 10.75 a 40.48,40.48 0 0 0 -16.73,-4.08 c -11,0 -13.48,4.08 -13.48,8.71 0,10.88 34.7,4.62 34.7,30.2 0,9.39 -6.66,20 -25.31,20 a 40.72,40.72 0 0 1 -19.59,-4.76 v -11.3 a 38,38 0 0 0 19.05,5 c 9.25,0 13.34,-4 13.34,-8.44 0,-15.24 -34.57,-6.94 -34.57,-30.35 0,-9.79 6.4,-20.27 24.36,-20.27 a 41,41 0 0 1 18.23,4.54 z"
           id="path90"
           inkscape:connector-curvature="0"
           style="fill:#a2c617" />
      </g>
    </g>
  </g>
</svg>
