<svg xmlns="http://www.w3.org/2000/svg" xmlns:xlink="http://www.w3.org/1999/xlink" viewBox="0 0 947.81 515.9"><defs><style>.cls-1{isolation:isolate;}.cls-2{fill:none;}.cls-3{fill:#fff;stroke:#392d87;stroke-miterlimit:10;stroke-width:6px;}.cls-4,.cls-5{mix-blend-mode:multiply;}.cls-4{fill:url(#linear-gradient);}.cls-5{fill:url(#linear-gradient-2);}.cls-6{fill:#8376b5;}.cls-7{fill:#9e94c7;}.cls-8{fill:#392d87;}.cls-9{fill:#d9e5a6;}.cls-10{fill:#b9d154;}.cls-11{fill:#a2c617;}</style><linearGradient id="linear-gradient" x1="227.67" y1="388.01" x2="278.23" y2="300.43" gradientTransform="matrix(0.86, 0.5, -0.5, 0.86, 206.94, -76.61)" gradientUnits="userSpaceOnUse"><stop offset="0.42" stop-color="#fff" stop-opacity="0"/><stop offset="0.81" stop-color="#b2b2b2"/><stop offset="0.83" stop-color="#afb0ac"/><stop offset="0.87" stop-color="#a6aa9a"/><stop offset="0.9" stop-color="#98a07d"/><stop offset="0.94" stop-color="#849255"/><stop offset="0.99" stop-color="#6c8122"/><stop offset="1" stop-color="#627a0f"/></linearGradient><linearGradient id="linear-gradient-2" x1="171.46" y1="357.23" x2="222.02" y2="269.65" gradientTransform="matrix(0.87, 0.5, -0.5, 0.87, 184.46, -58.28)" gradientUnits="userSpaceOnUse"><stop offset="0.43" stop-color="#fff" stop-opacity="0"/><stop offset="0.47" stop-color="#f6f6f6" stop-opacity="0.11"/><stop offset="0.67" stop-color="#d2d2d2" stop-opacity="0.59"/><stop offset="0.8" stop-color="#bbb" stop-opacity="0.88"/><stop offset="0.87" stop-color="#b2b2b2"/><stop offset="1" stop-color="#251854"/></linearGradient></defs><title>Asset 2</title><g class="cls-1"><g id="Layer_2" data-name="Layer 2"><g id="Layer_1-2" data-name="Layer 1"><rect class="cls-2" width="947.81" height="515.9"/><rect class="cls-3" x="186.99" y="146.45" width="211.98" height="211.98" rx="12.2"/><rect class="cls-4" x="199.57" y="335.04" width="106.03" height="17.7" transform="translate(-138.58 173.45) rotate(-30.16)"/><rect class="cls-5" x="143.92" y="304.48" width="106.42" height="17.97" transform="translate(-130.8 141.46) rotate(-30.16)"/><g class="cls-1"><polygon class="cls-6" points="247.48 251.27 265.2 240.97 265.08 284.37 247.35 294.67 247.48 251.27"/><polygon class="cls-7" points="247.53 234 265.25 223.7 282.28 233.53 264.55 243.83 247.53 234"/><polygon class="cls-6" points="264.55 243.83 282.28 233.53 282.23 250.8 264.5 261.1 264.55 243.83"/><polygon class="cls-6" points="247.59 209.82 265.32 199.52 265.25 223.7 247.53 234 247.59 209.82"/><polygon class="cls-8" points="290.62 217.37 290.57 234.64 247.59 209.82 247.53 234 264.55 243.83 264.5 261.1 247.48 251.27 247.35 294.67 229.41 284.31 229.7 182.19 290.62 217.37"/><polygon class="cls-7" points="229.7 182.19 247.43 171.89 308.35 207.07 290.62 217.37 229.7 182.19"/><polygon class="cls-6" points="290.62 217.37 308.35 207.07 308.3 224.34 290.57 234.64 290.62 217.37"/></g><g class="cls-1"><polygon class="cls-9" points="320.63 297.54 303.02 287.3 342.57 264.46 360.19 274.7 320.63 297.54"/><polygon class="cls-10" points="320.4 214.06 320.63 297.54 360.19 274.7 369.46 286.46 302.87 324.91 302.58 224.35 320.4 214.06"/><polygon class="cls-11" points="302.87 324.91 285.25 314.67 284.96 214.11 302.58 224.35 302.87 324.91"/><polygon class="cls-9" points="302.58 224.35 284.96 214.11 302.78 203.82 320.4 214.06 302.58 224.35"/></g><path class="cls-8" d="M499.93,160.38v11.84h-44.5v27.62h39.19v11.84H455.43v39.46H442.77V160.38Z"/><path class="cls-8" d="M564.7,210.59v19.6c0,5.17-2,22-28.17,22-26.67,0-28.71-17.14-28.71-22.45,0-13.47,12-21.5,32-21.5a89.27,89.27,0,0,1,12.38.82c-.54-11.16-5.44-16.06-18.78-16.06a57.93,57.93,0,0,0-18.78,3.4V185.83a57.18,57.18,0,0,1,20.55-3.68C554.09,182.15,564.7,192.22,564.7,210.59ZM552.18,219a73.8,73.8,0,0,0-11.84-.82c-5.85,0-20.14,1.77-20.14,11.43,0,7.76,5.58,11.57,16.33,11.57,10.34,0,15.65-3.67,15.65-11.16Z"/><path class="cls-8" d="M594.77,251.14H582.26V189a86.08,86.08,0,0,1,33.06-6.81v11.43a90.18,90.18,0,0,0-20.55,2.86Z"/><path class="cls-8" d="M668.26,186.64v10.75a40.53,40.53,0,0,0-16.74-4.08c-11,0-13.47,4.08-13.47,8.71,0,10.89,34.7,4.63,34.7,30.21,0,9.39-6.67,20-25.31,20a40.73,40.73,0,0,1-19.6-4.76v-11.3a38,38,0,0,0,19,5c9.25,0,13.34-4,13.34-8.44,0-15.24-34.57-6.94-34.57-30.34,0-9.8,6.4-20.28,24.36-20.28A41.1,41.1,0,0,1,668.26,186.64Z"/><path class="cls-8" d="M741.19,236.58v11.3a61.3,61.3,0,0,1-24.08,4.49c-14.29,0-31.3-6-31.3-34.29,0-8.85,0-35.93,30.07-35.93,18.24,0,29.94,12.93,29.94,32.8,0,3.26-.13,6.39-.41,9.39H698.6c1.91,14.15,10.21,17.28,19.19,17.28C727.86,241.62,735.48,239.58,741.19,236.58ZM698.47,213H733.3c-.68-7.89-3.94-19.73-17.42-19.73C704.45,193.31,699.55,198.48,698.47,213Z"/><path class="cls-8" d="M777.8,193.72v39.46c0,5.85,3.81,8,10.21,8a14.83,14.83,0,0,0,7.89-2v11.16a25.38,25.38,0,0,1-9.66,1.9c-4.36,0-20.82-1.49-20.82-19.87V193.72H753.58V183.24h11.84V163H777.8v20.28h18.1v10.48Z"/><path class="cls-11" d="M500.47,337.38v11.84h-57.7V258.46h12.52v78.92Z"/><path class="cls-11" d="M566.6,308.67v19.59c0,5.17-2,22.05-28.16,22.05-26.67,0-28.72-17.15-28.72-22.46,0-13.47,12-21.5,32-21.5a90.88,90.88,0,0,1,12.39.82c-.55-11.16-5.45-16.06-18.78-16.06a57.79,57.79,0,0,0-18.78,3.41V283.9a57.38,57.38,0,0,1,20.55-3.67C556,280.23,566.6,290.3,566.6,308.67Zm-12.51,8.43a75.17,75.17,0,0,0-11.84-.81c-5.85,0-20.14,1.77-20.14,11.43,0,7.76,5.58,11.57,16.33,11.57,10.34,0,15.65-3.68,15.65-11.16Z"/><path class="cls-11" d="M640.5,314.38c0,31.3-18.78,35.93-30.08,35.93-26,0-28-16.88-28-22.05v-72.8h12.38v26.81a52.38,52.38,0,0,1,14.57-2C623.49,280.23,640.5,286.22,640.5,314.38Zm-12.52,0c0-20.27-9-23.13-18.64-23.13a38,38,0,0,0-14.57,2.86v35c0,6.8,5.31,10.21,15.65,10.21C618.59,339.29,628,336.43,628,314.38Z"/><path class="cls-11" d="M696.83,284.72v10.75a40.48,40.48,0,0,0-16.73-4.08c-11,0-13.48,4.08-13.48,8.71,0,10.88,34.7,4.62,34.7,30.2,0,9.39-6.66,20-25.31,20a40.72,40.72,0,0,1-19.59-4.76v-11.3a38,38,0,0,0,19.05,5c9.25,0,13.34-4,13.34-8.44,0-15.24-34.57-6.94-34.57-30.35,0-9.79,6.4-20.27,24.36-20.27A41,41,0,0,1,696.83,284.72Z"/></g></g></g></svg>