<?xml version="1.0" encoding="utf-8"?>
<!-- Generator: Adobe Illustrator 16.0.4, SVG Export Plug-In . SVG Version: 6.00 Build 0)  -->
<!DOCTYPE svg PUBLIC "-//W3C//DTD SVG 1.1//EN" "http://www.w3.org/Graphics/SVG/1.1/DTD/svg11.dtd">
<svg version="1.1" xmlns="http://www.w3.org/2000/svg" xmlns:xlink="http://www.w3.org/1999/xlink" x="0px" y="0px"
	 width="249.45px" height="99.21px" viewBox="0 0 249.45 99.21" enable-background="new 0 0 249.45 99.21" xml:space="preserve">
<g id="Layer_1">
	<rect x="20.12" y="20.411" fill="none" stroke="#000000" stroke-miterlimit="10" width="208.333" height="7.531"/>
	<rect x="20.12" y="27.948" fill="none" stroke="#000000" stroke-miterlimit="10" width="52.083" height="15.062"/>
	<rect x="20.12" y="43.016" fill="none" stroke="#000000" stroke-miterlimit="10" width="52.083" height="15.062"/>
	<rect x="20.12" y="58.083" fill="none" stroke="#000000" stroke-miterlimit="10" width="52.083" height="15.062"/>
	<rect x="20.12" y="73.151" fill="none" stroke="#000000" stroke-miterlimit="10" width="52.083" height="15.062"/>
	<rect x="72.203" y="73.151" fill="none" stroke="#000000" stroke-miterlimit="10" width="156.25" height="15.062"/>
	<rect x="72.203" y="58.083" fill="none" stroke="#000000" stroke-miterlimit="10" width="156.25" height="15.062"/>
	<rect x="72.203" y="43.016" fill="none" stroke="#000000" stroke-miterlimit="10" width="156.25" height="15.062"/>
	<rect x="72.203" y="27.947" fill="none" stroke="#000000" stroke-miterlimit="10" width="42.835" height="15.063"/>
	<rect x="115.039" y="27.947" fill="none" stroke="#000000" stroke-miterlimit="10" width="42.835" height="15.063"/>
	<rect x="157.875" y="27.778" fill="none" stroke="#000000" stroke-miterlimit="10" width="70.578" height="15.063"/>
	<rect x="20.12" y="31.917" fill="none" width="51.999" height="11.099"/>
	<text transform="matrix(1.0354 0 0 1 37.5605 39.5229)" font-family="'Arial-BoldMT'" font-size="10.624">ID#</text>
	<rect x="20.162" y="46.984" fill="none" width="51.999" height="11.099"/>
	<text transform="matrix(1.0354 0 0 1 34.8525 54.5908)" font-family="'Arial-BoldMT'" font-size="10.624">Item</text>
	<rect x="20.12" y="61.612" fill="none" width="51.999" height="11.098"/>
	<text transform="matrix(1.0354 0 0 1 29.0049 69.2188)" font-family="'Arial-BoldMT'" font-size="10.624">Owner</text>
	<rect x="20.162" y="77.114" fill="none" width="51.999" height="11.1"/>
	<text transform="matrix(1.0354 0 0 1 30.8809 84.7207)" font-family="'Arial-BoldMT'" font-size="10.624">Notes</text>
	<rect x="115.709" y="31.916" fill="none" width="41.501" height="11.1"/>
	<text transform="matrix(1.0354 0 0 1 125.1567 39.5225)" font-family="'Arial-BoldMT'" font-size="10.624">HDL</text>
	<rect x="20.162" y="10.88" fill="none" width="207.998" height="9.531"/>
	<text transform="matrix(1.0354 0 0 1 20.1621 16.6079)" font-family="'Arial-BoldMT'" font-size="8">FSL Inventory - Sys 1.1</text>
	<rect x="72.455" y="31.917" fill="none" width="42.584" height="11.099"/>
	<text transform="matrix(1.0354 0 0 1 82.1343 39.5229)" font-family="'ArialMT'" font-size="10.624"></text>
	<rect x="157.874" y="31.917" fill="none" width="70.583" height="11.099"/>
	<text transform="matrix(1.0354 0 0 1 176.0498 39.5229)" font-family="'ArialMT'" font-size="10.624"></text>
	<rect x="74.796" y="46.983" fill="none" width="153.578" height="11.1"/>
	<text transform="matrix(1.0354 0 0 1 74.7964 54.5898)" font-family="'ArialMT'" font-size="10.624"></text>
	<rect x="74.469" y="61.61" fill="none" width="153.905" height="11.1"/>
	<text transform="matrix(1.0354 0 0 1 74.4692 69.2168)" font-family="'ArialMT'" font-size="10.624"></text>
	<rect x="74.138" y="77.114" fill="none" width="154.236" height="11.1"/>
	<text transform="matrix(1.0354 0 0 1 74.1377 84.7207)" font-family="'ArialMT'" font-size="10.624"></text>
</g>
<g id="Layer_2" display="none">
	
		<rect x="17.01" y="7.085" display="inline" fill="none" stroke="#F05657" stroke-width="4" stroke-miterlimit="10" width="215.433" height="85.04"/>
</g>
</svg>
